<svg width="24" height="24" viewBox="0 0 24 24" fill="none" xmlns="http://www.w3.org/2000/svg">
<path d="M11.8304 6.09351C11.7527 6.03291 11.657 6 11.5585 6C11.46 6 11.3644 6.03291 11.2867 6.09351L5 10.996L5.54368 11.6836L6.3125 11.0841V16.5C6.31297 16.7319 6.40531 16.9542 6.56931 17.1182C6.7333 17.2822 6.95558 17.3745 7.1875 17.375H15.9375C16.1694 17.3745 16.3917 17.2822 16.5557 17.1182C16.7197 16.9542 16.8121 16.7319 16.8125 16.5V11.0881L17.5813 11.6875L18.125 10.9998L11.8304 6.09351ZM12.4375 16.5H10.6875V13H12.4375V16.5ZM13.3125 16.5V13C13.3122 12.768 13.22 12.5456 13.0559 12.3816C12.8919 12.2175 12.6695 12.1252 12.4375 12.125H10.6875C10.4555 12.1252 10.2331 12.2175 10.069 12.3815C9.90499 12.5456 9.81273 12.768 9.8125 13V16.5H7.1875V10.4019L11.5625 6.99376L15.9375 10.4065V16.5H13.3125Z" fill="#5A6872"/>
<path fill-rule="evenodd" clip-rule="evenodd" d="M12 2C17.5 2 22 6.5 22 12C22 17.5 17.5 22 12 22C6.5 22 2 17.5 2 12C2 6.5 6.5 2 12 2V2ZM12 0C5.4 0 0 5.4 0 12C0 18.6 5.4 24 12 24C18.6 24 24 18.6 24 12C24 5.4 18.6 0 12 0V0V0Z" fill="#5A6872"/>
</svg>
